<svg xmlns="http://www.w3.org/2000/svg" viewBox="0 0 500 500"><g id="freepik--background-complete--inject-170"><rect x="67.77" y="388.54" width="35.16" height="11.19" style="fill:#ebebeb"></rect><rect x="91.53" y="181.37" width="35.16" height="11.19" style="fill:#ebebeb"></rect><path d="M83.32,413.84c-5.86.1-20.63.35-26.29.41l-8.87,0h-.45v-.46l0-11.19v-.5h.5l17.58.07c4.37,0,13.2.13,17.58.19h.24v.24l-.23,11.19Zm0,0-.24-11.19.24.24c-4.39.06-13.2.15-17.58.19l-17.58.07.5-.5,0,11.19-.46-.46,8.71.05c5.57.06,20.68.31,26.45.41Z" style="fill:#ebebeb"></path><path d="M392.11,316.27c-5.85.1-20.62.35-26.29.41l-8.86,0h-.46v-.46l0-11.19v-.5H357l17.57.07c4.38,0,13.21.13,17.58.19h.25v.24l-.24,11.19Zm0,0-.23-11.19.23.24c-4.38.06-13.19.15-17.58.19l-17.57.07.5-.5,0,11.19-.45-.46,8.71,0c5.57.07,20.68.32,26.44.42Z" style="fill:#ebebeb"></path><path d="M372.5,330.38c-5.86.1-20.63.35-26.29.41l-8.87,0h-.45v-.46l-.05-11.19v-.5h.5l17.58.07c4.38,0,13.2.13,17.58.19h.24v.24l-.24,11.19Zm0,0-.24-11.19.24.24c-4.38.06-13.19.15-17.58.19l-17.58.07.5-.5,0,11.19-.46-.46,8.71,0c5.58.07,20.69.32,26.45.42Z" style="fill:#ebebeb"></path><rect x="317.81" y="305.08" width="35.16" height="11.19" style="fill:#ebebeb"></rect><rect x="416.68" y="402.65" width="35.16" height="11.19" style="fill:#ebebeb"></rect><rect x="397.07" y="44.93" width="35.16" height="11.19" style="fill:#ebebeb"></rect><path d="M451.84,70.23c-5.86.1-20.63.35-26.29.42l-8.87,0h-.45v-.46L416.18,59v-.5h.5l17.58.07c4.38,0,13.2.13,17.58.2h.24V59l-.24,11.19Zm0,0L451.6,59l.24.24c-4.39.06-13.19.16-17.58.19l-17.58.07.5-.5,0,11.19-.46-.45,8.71,0c5.58.06,20.69.32,26.45.41Z" style="fill:#ebebeb"></path><path d="M83.32,56.12c-5.86.1-20.63.35-26.29.42l-8.87,0h-.45v-.46l0-11.19v-.5h.5l17.58.07c4.37,0,13.2.13,17.58.2h.24v.23l-.23,11.19Zm0,0-.24-11.19.24.24c-4.39.06-13.2.16-17.58.19l-17.58.07.5-.5,0,11.19-.46-.45,8.71,0c5.57.06,20.68.32,26.45.41Z" style="fill:#ebebeb"></path><path d="M318.63,297.15V455.41H414.3V297.15Zm87,99.85h-78.3V355.8h78.3Zm0-51h-78.3v-41.2h78.3Z" style="fill:#ebebeb"></path><rect x="414.3" y="297.15" width="38.26" height="158.25" style="fill:#dbdbdb"></rect><rect x="327.31" y="304.79" width="18.61" height="41.2" style="fill:#dbdbdb"></rect><path d="M406,445.85H327.43v-40H406Zm-77.81-.75h77.06V406.57H328.18Z" style="fill:#dbdbdb"></path><rect x="355.72" y="417.24" width="15.45" height="7.82" style="fill:#dbdbdb"></rect><path d="M376.11,424.85h-16.2v-7.39h16.2Zm-15.45-.75h14.7v-5.89h-14.7Z" style="fill:#dbdbdb"></path><rect x="327.31" y="355.81" width="18.61" height="41.2" style="fill:#dbdbdb"></rect><rect x="72.95" width="1" height="84.93" style="fill:#c7c7c7"></rect><polygon points="102.94 113.36 100.57 118.57 46.32 118.57 43.96 113.36 67.05 97.37 79.85 97.37 102.94 113.36" style="fill:#ebebeb"></polygon><polygon points="81.45 81.97 79.85 97.37 67.05 97.37 65.45 81.97 81.45 81.97" style="fill:#dbdbdb"></polygon><polygon points="102.94 113.36 100.57 118.58 46.32 118.58 43.95 113.36 102.94 113.36" style="fill:#dbdbdb"></polygon><rect x="136.27" width="1" height="68.11" style="fill:#c7c7c7"></rect><polygon points="166.26 96.54 163.89 101.75 109.65 101.75 107.28 96.54 130.38 80.55 143.17 80.55 166.26 96.54" style="fill:#ebebeb"></polygon><polygon points="144.77 65.15 143.17 80.55 130.38 80.55 128.77 65.15 144.77 65.15" style="fill:#dbdbdb"></polygon><polygon points="166.26 96.54 163.89 101.75 109.64 101.75 107.28 96.54 166.26 96.54" style="fill:#dbdbdb"></polygon></g><g id="freepik--Plant--inject-170"><path d="M415,392.52s9.19-33,16.53-44.2,21-23.51,21-23.51S452.24,375.68,415,392.52Z" style="fill:#FFC727"></path><path d="M415.66,392A158.71,158.71,0,0,0,424,376a112.7,112.7,0,0,1,4.56-17.35c0-.11.19-.05.17.06-1.22,5.21-2.64,10.38-3.93,15.57,3.71-8,7.24-16.16,11.66-23.75a50.43,50.43,0,0,1,4.26-10.56c0-.09.21,0,.16.06a68.25,68.25,0,0,0-2.87,7.92,79.59,79.59,0,0,1,7-9.65c.17-.18.49,0,.33.23-5.91,7.54-10,16.12-13.87,24.81A133.17,133.17,0,0,0,443,348.89a0,0,0,0,1,.08.05,117.76,117.76,0,0,1-12.35,16c-2.83,6.36-5.61,12.75-9,18.81,6.74-5.7,11.92-13.07,17.05-20.18a.16.16,0,0,1,.26.17c-5.14,7.8-10.45,15.15-17.84,20.93a83.17,83.17,0,0,1-4.93,7.71A.39.39,0,0,1,415.66,392Z" style="fill:#263238"></path><path d="M413.25,392.57s16.53-30.42,11.73-59.92-9.94-40-9.94-40S389.07,338.53,413.25,392.57Z" style="fill:#FFC727"></path><path d="M406.47,344.74a144,144,0,0,0,6.38,24.57c0-10.83.25-21.65.54-32.48a83.78,83.78,0,0,1-3.12-20.16c0-.2.29-.18.31,0A115.27,115.27,0,0,0,413.47,334q.38-13.39.88-26.79c0-.15.23-.14.23,0,0,13.95,0,27.9-.1,41.85a112,112,0,0,0,4.77-16.58,0,0,0,0,1,.09,0c-.49,6.51-2.47,12.81-4.87,18.86-.07,8.91-.16,17.83-.36,26.74,2.79-9.48,5.78-18.66,6.59-28.67a.11.11,0,0,1,.21,0c-.22,11-3.07,22.26-6.71,32.65a.57.57,0,0,1-.19.26q-.12,4.89-.28,9.77a.37.37,0,0,1-.73,0c-.13-6.66-.17-13.33-.16-20a89.41,89.41,0,0,1-6.51-27.38C406.32,344.68,406.46,344.66,406.47,344.74Z" style="fill:#263238"></path><path d="M407.6,340a55.89,55.89,0,0,1,1.16,8,.08.08,0,0,1-.16,0,57,57,0,0,1-1.36-8C407.22,339.87,407.56,339.83,407.6,340Z" style="fill:#263238"></path><path d="M417.26,317.8c0-.09.16-.06.16,0a20.89,20.89,0,0,1-.83,5.55c0,.14-.25.07-.22-.07C416.73,321.47,417,319.63,417.26,317.8Z" style="fill:#263238"></path><path d="M407.22,392.57s.67-31.76-8.44-47.54-24.22-23.83-24.22-23.83S380.65,377.18,407.22,392.57Z" style="fill:#FFC727"></path><path d="M390.61,365.41A118.7,118.7,0,0,0,402.94,381q-2.73-9.75-6.3-19.16c-5.11-4.47-10.18-9.11-13.31-15.24a.09.09,0,0,1,.15-.09c3.37,5.43,7.87,9.77,12.61,13.95a244.56,244.56,0,0,0-12.68-27.62.2.2,0,0,1,.35-.2,148.67,148.67,0,0,1,7.95,14.49c-.85-3.39-1.53-6.86-2.41-10.23a.08.08,0,0,1,.15,0,57.83,57.83,0,0,1,3.74,13.47,162.08,162.08,0,0,1,8,21.73c-.24-4.76-.54-9.5-1-14.25,0-.09.14-.11.16,0a76.63,76.63,0,0,1,1.38,16q2,7.11,3.31,14.35c0,.13-.17.19-.2.05-.5-2-1-4-1.58-6,0,0-.08,0-.11-.05-4.88-4.89-9.52-10.47-12.58-16.71C390.55,365.41,390.59,365.38,390.61,365.41Z" style="fill:#263238"></path><path d="M380.06,339.57c1,1.1,1.94,2.25,2.93,3.38a27.14,27.14,0,0,1,2.62,3.06.05.05,0,0,1-.07.07,15.06,15.06,0,0,1-3-3,25.37,25.37,0,0,1-2.6-3.41C379.86,339.59,380,339.49,380.06,339.57Z" style="fill:#263238"></path><path d="M433.19,394.89l-1.15,15-3.46,45.48H398.4l-3.46-45.48-1.15-15h39.4Z" style="fill:#37474f"></path><path d="M433.19,394.89l-.7,9.15-37.88,1.52-.82-10.67h39.4Z" style="fill:#263238"></path><rect x="391.11" y="387.51" width="44.76" height="11.53" transform="translate(826.98 786.55) rotate(180)" style="fill:#37474f"></rect></g><g id="freepik--Floor--inject-170"><path d="M47.44,455.41c129.77-.62,275.35-.62,405.12,0-129.77.61-275.35.61-405.12,0Z" style="fill:#263238"></path></g><g id="freepik--Screen--inject-170"><rect x="106.66" y="57.56" width="286.68" height="219.45" style="fill:#fff"></rect><path d="M393.33,277c0,.08-286.75.09-286.81.15s0-219.55-.09-219.6v-.23h.23s286.73.17,286.77.13-.15,219.48-.1,219.55Zm0,0s-.21-219.87,0-219.35l-286.67.13.23-.23s.06,220-.23,219.31l286.67.14Z" style="fill:#263238"></path><rect x="106.66" y="57.56" width="286.68" height="8.34" style="fill:#263238"></rect><path d="M114.7,61.73A1.68,1.68,0,1,1,113,60.05,1.68,1.68,0,0,1,114.7,61.73Z" style="fill:#FFC727"></path><path d="M121.56,61.73a1.68,1.68,0,1,1-1.68-1.68A1.68,1.68,0,0,1,121.56,61.73Z" style="fill:#fff"></path><path d="M128.41,61.73a1.68,1.68,0,1,1-1.68-1.68A1.68,1.68,0,0,1,128.41,61.73Z" style="fill:#455a64"></path><path d="M106.66,83.22c91.83-.57,194.84-.57,286.67,0-91.83.57-194.84.57-286.67,0Z" style="fill:#dbdbdb"></path><path d="M106.66,100.54c91.83-.57,194.84-.57,286.67,0-91.83.57-194.84.57-286.67,0Z" style="fill:#dbdbdb"></path><path d="M119.34,73h-1.18v4a.41.41,0,0,1-.41.41.41.41,0,0,1-.41-.41V73h-1.17a.42.42,0,0,1-.41-.42.41.41,0,0,1,.41-.41h3.17a.41.41,0,0,1,.41.41A.43.43,0,0,1,119.34,73Z" style="fill:#263238"></path><path d="M120.23,76.85a1.89,1.89,0,0,1-.51-1.31,2,2,0,0,1,.51-1.3,1.75,1.75,0,0,1,1.28-.56,1.66,1.66,0,0,1,1.25.56,1.89,1.89,0,0,1,.52,1.3,1.81,1.81,0,0,1-.52,1.31,1.67,1.67,0,0,1-1.25.57A1.76,1.76,0,0,1,120.23,76.85Zm.3-1.31a1.22,1.22,0,0,0,.27.79,1,1,0,0,0,.71.28,1,1,0,0,0,.69-.28,1.18,1.18,0,0,0,.29-.79,1.15,1.15,0,0,0-.29-.77,1,1,0,0,0-1.4,0A1.18,1.18,0,0,0,120.53,75.54Z" style="fill:#263238"></path><path d="M125.05,73.38a.56.56,0,1,1,0,1.11.56.56,0,0,1,0-1.11Zm0,3a.56.56,0,1,1,0,1.11.56.56,0,0,1,0-1.11Z" style="fill:#263238"></path><path d="M350.36,74.72A2.73,2.73,0,0,1,353.09,72a2.78,2.78,0,0,1,1.71.58.43.43,0,0,1-.52.68,1.81,1.81,0,0,0-1.19-.41,2,2,0,0,0-1.34.53,1.84,1.84,0,0,0-.55,1.3,1.78,1.78,0,0,0,.55,1.29,2,2,0,0,0,1.34.54,1.83,1.83,0,0,0,1.19-.41.43.43,0,0,1,.52.68,2.78,2.78,0,0,1-1.71.58A2.72,2.72,0,0,1,350.36,74.72Z" style="fill:#263238"></path><path d="M355.91,75.54a1.89,1.89,0,0,1,1.89-1.86,1.94,1.94,0,0,1,1.18.41.41.41,0,0,1,.08.55.4.4,0,0,1-.56.07,1.18,1.18,0,0,0-.7-.24,1.07,1.07,0,1,0,0,2.14,1.21,1.21,0,0,0,.7-.24.4.4,0,0,1,.56.08A.41.41,0,0,1,359,77a2.07,2.07,0,0,1-1.18.4A1.89,1.89,0,0,1,355.91,75.54Z" style="fill:#263238"></path><path d="M367.55,74.72A2.74,2.74,0,0,1,370.28,72a2.81,2.81,0,0,1,1.72.58.43.43,0,0,1-.52.68,1.86,1.86,0,0,0-1.2-.41,2,2,0,0,0-1.34.53,1.87,1.87,0,0,0-.54,1.3,1.81,1.81,0,0,0,.54,1.29,2,2,0,0,0,1.34.54,1.86,1.86,0,0,0,1.2-.41.43.43,0,0,1,.52.68,2.81,2.81,0,0,1-1.72.58A2.73,2.73,0,0,1,367.55,74.72Z" style="fill:#263238"></path><path d="M373.14,74.72A2.74,2.74,0,0,1,375.87,72a2.83,2.83,0,0,1,1.72.58.43.43,0,0,1-.52.68,1.86,1.86,0,0,0-1.2-.41,2,2,0,0,0-1.34.53,1.87,1.87,0,0,0-.54,1.3,1.81,1.81,0,0,0,.54,1.29,2,2,0,0,0,1.34.54,1.88,1.88,0,0,0,1.2-.41.43.43,0,0,1,.52.68,2.83,2.83,0,0,1-1.72.58A2.72,2.72,0,0,1,373.14,74.72Z" style="fill:#263238"></path><path d="M383.06,72.84a2.73,2.73,0,0,1,0,3.76,2.45,2.45,0,0,1-1.77.8,2.55,2.55,0,0,1-1.83-.8,2.79,2.79,0,0,1,0-3.76,2.51,2.51,0,0,1,1.83-.8A2.41,2.41,0,0,1,383.06,72.84ZM383,74.72a1.88,1.88,0,0,0-.51-1.3,1.58,1.58,0,0,0-1.17-.53,1.6,1.6,0,0,0-1.21.53,1.93,1.93,0,0,0,0,2.59,1.61,1.61,0,0,0,1.21.54,1.59,1.59,0,0,0,1.17-.54A1.87,1.87,0,0,0,383,74.72Z" style="fill:#263238"></path><path d="M116,92.65a.39.39,0,0,1,.55-.05,2.37,2.37,0,0,0,1.42.57,1.58,1.58,0,0,0,.93-.28.66.66,0,0,0,.32-.53.48.48,0,0,0-.07-.24.65.65,0,0,0-.22-.22,3,3,0,0,0-1-.35h0a4.49,4.49,0,0,1-1-.29,1.62,1.62,0,0,1-.69-.58,1.17,1.17,0,0,1-.17-.61,1.37,1.37,0,0,1,.6-1.09,2.2,2.2,0,0,1,1.28-.39,2.93,2.93,0,0,1,1.62.59.39.39,0,0,1,.11.53.37.37,0,0,1-.53.11,2.16,2.16,0,0,0-1.2-.47,1.41,1.41,0,0,0-.83.25.59.59,0,0,0-.28.47.35.35,0,0,0,0,.21.74.74,0,0,0,.2.19,2.74,2.74,0,0,0,.93.33h0a4.29,4.29,0,0,1,1,.31,1.67,1.67,0,0,1,.74.62,1.13,1.13,0,0,1,.18.63,1.44,1.44,0,0,1-.64,1.15,2.28,2.28,0,0,1-1.37.43,3.21,3.21,0,0,1-1.91-.75A.4.4,0,0,1,116,92.65Z" style="fill:#263238"></path><path d="M122.51,93.94A1.56,1.56,0,0,1,121,92.4V90.62a.4.4,0,0,1,.4-.39.39.39,0,0,1,.39.39V92.4a.75.75,0,0,0,.76.75.77.77,0,0,0,.78-.75V90.62a.39.39,0,0,1,.39-.39.41.41,0,0,1,.4.39V92.4A1.57,1.57,0,0,1,122.51,93.94Z" style="fill:#263238"></path><path d="M125.6,92.09h0V89.14a.41.41,0,0,1,.81,0v1.4a1.7,1.7,0,0,1,1-.31,1.86,1.86,0,0,1,0,3.71,1.79,1.79,0,0,1-1-.32.39.39,0,0,1-.39.32.4.4,0,0,1-.4-.4Zm.81,0a1.05,1.05,0,0,0,.3.74.94.94,0,0,0,.7.3,1,1,0,0,0,.69-.3,1.05,1.05,0,0,0,.3-.74,1,1,0,0,0-.3-.75,1,1,0,0,0-.69-.3.94.94,0,0,0-.7.3A1,1,0,0,0,126.41,92.09Z" style="fill:#263238"></path><path d="M129.78,94.85a.39.39,0,0,1,.41-.39V90.63a.39.39,0,0,1,.4-.4.39.39,0,0,1,.4.4v3.83a.8.8,0,0,1-.8.8A.39.39,0,0,1,129.78,94.85Zm.42-5.55v-.15a.41.41,0,0,1,.81,0v.15a.41.41,0,1,1-.81,0Z" style="fill:#263238"></path><path d="M132.1,92.08a1.84,1.84,0,0,1,1.82-1.85A1.78,1.78,0,0,1,135.71,92v0s0,.05,0,.06a.36.36,0,0,1-.39.3H133a1,1,0,0,0,.25.49,1.19,1.19,0,0,0,.72.34,1.25,1.25,0,0,0,.77-.19.43.43,0,0,1,.56,0,.34.34,0,0,1,0,.48,1.87,1.87,0,0,1-1.33.49A1.84,1.84,0,0,1,132.1,92.08Zm.81-.36H135a1.23,1.23,0,0,0-1.1-.79A1,1,0,0,0,132.91,91.72Z" style="fill:#263238"></path><path d="M136.63,92.09a1.88,1.88,0,0,1,1.89-1.86,2,2,0,0,1,1.18.4.41.41,0,0,1,.08.55.39.39,0,0,1-.55.08,1.21,1.21,0,0,0-.71-.24,1.07,1.07,0,1,0,0,2.13,1.23,1.23,0,0,0,.71-.23.39.39,0,0,1,.55.08.41.41,0,0,1-.08.55,2,2,0,0,1-1.18.39A1.88,1.88,0,0,1,136.63,92.09Z" style="fill:#263238"></path><path d="M142.81,90.63a.41.41,0,0,1-.41.41h-.19v2.08a.41.41,0,0,1,0,.82.82.82,0,0,1-.82-.82V91h-.22a.41.41,0,0,1-.41-.41.4.4,0,0,1,.41-.4h.22V89.15a.41.41,0,1,1,.82,0v1.08h.19A.4.4,0,0,1,142.81,90.63Z" style="fill:#263238"></path><path d="M144.62,89.93a.56.56,0,1,1-.55.56A.56.56,0,0,1,144.62,89.93Zm0,3a.56.56,0,1,1-.55.56A.56.56,0,0,1,144.62,92.89Z" style="fill:#263238"></path><path d="M136.55,74.47c38-.62,80.26-.61,118.29,0-38,.6-80.27.62-118.29,0Z" style="fill:#dbdbdb"></path><path d="M152,91.94c42.21-.62,89.13-.6,131.37,0-42.25.6-89.15.62-131.37,0Z" style="fill:#dbdbdb"></path><polygon points="382.93 246.81 379.68 246.81 379.68 245.88 382 245.88 382 243.56 382.93 243.56 382.93 246.81" style="fill:#dbdbdb"></polygon><path d="M374.16,246.81h-5.52v-.93h5.52Zm-11,0H357.6v-.93h5.52Zm-11,0h-5.51v-.93h5.51Zm-11,0h-5.52v-.93h5.52Zm-11,0h-5.52v-.93H330Zm-11,0h-5.51v-.93H319Zm-11,0h-5.52v-.93h5.52Zm-11,0h-5.52v-.93h5.52Zm-11,0h-5.51v-.93h5.51Zm-11,0h-5.52v-.93h5.52Zm-11,0h-5.52v-.93h5.52Zm-11,0h-5.51v-.93h5.51Zm-11,0H236.2v-.93h5.52Zm-11,0h-5.52v-.93h5.52Zm-11,0h-5.52v-.93h5.52Zm-11,0h-5.52v-.93h5.52Zm-11,0h-5.52v-.93h5.52Zm-11,0H181v-.93h5.52Zm-11,0H170v-.93h5.52Zm-11,0h-5.52v-.93h5.52Zm-11,0h-5.52v-.93h5.52Zm-11,0h-5.52v-.93h5.52Zm-11,0h-5.52v-.93h5.52Z" style="fill:#dbdbdb"></path><polygon points="120.32 246.81 117.06 246.81 117.06 243.56 117.99 243.56 117.99 245.88 120.32 245.88 120.32 246.81" style="fill:#dbdbdb"></polygon><path d="M118,237.92h-.93v-5.64H118Zm0-11.28h-.93V221H118Zm0-11.27h-.93v-5.64H118Zm0-11.27h-.93v-5.64H118Zm0-11.28h-.93v-5.64H118Zm0-11.27h-.93v-5.64H118Zm0-11.28h-.93v-5.63H118ZM118,159h-.93v-5.64H118Zm0-11.27h-.93v-5.64H118Zm0-11.28h-.93v-5.64H118Zm0-11.27h-.93v-5.64H118Z" style="fill:#dbdbdb"></path><polygon points="117.99 113.9 117.06 113.9 117.06 110.65 120.32 110.65 120.32 111.58 117.99 111.58 117.99 113.9" style="fill:#dbdbdb"></polygon><path d="M374.16,111.58h-5.52v-.93h5.52Zm-11,0H357.6v-.93h5.52Zm-11,0h-5.51v-.93h5.51Zm-11,0h-5.52v-.93h5.52Zm-11,0h-5.52v-.93H330Zm-11,0h-5.51v-.93H319Zm-11,0h-5.52v-.93h5.52Zm-11,0h-5.52v-.93h5.52Zm-11,0h-5.51v-.93h5.51Zm-11,0h-5.52v-.93h5.52Zm-11,0h-5.52v-.93h5.52Zm-11,0h-5.51v-.93h5.51Zm-11,0H236.2v-.93h5.52Zm-11,0h-5.52v-.93h5.52Zm-11,0h-5.51v-.93h5.51Zm-11,0h-5.52v-.93h5.52Zm-11,0h-5.52v-.93h5.52Zm-11,0H181v-.93h5.52Zm-11,0H170v-.93h5.52Zm-11,0h-5.52v-.93h5.52Zm-11,0h-5.52v-.93h5.52Zm-11,0h-5.52v-.93h5.52Zm-11,0h-5.52v-.93h5.52Z" style="fill:#dbdbdb"></path><polygon points="382.93 113.9 382 113.9 382 111.58 379.68 111.58 379.68 110.65 382.93 110.65 382.93 113.9" style="fill:#dbdbdb"></polygon><path d="M382.93,237.92H382v-5.64h.93Zm0-11.28H382V221h.93Zm0-11.27H382v-5.64h.93Zm0-11.27H382v-5.64h.93Zm0-11.28H382v-5.64h.93Zm0-11.27H382v-5.64h.93Zm0-11.28H382v-5.63h.93Zm0-11.27H382v-5.64h.93Zm0-11.27H382v-5.64h.93Zm0-11.28H382v-5.64h.93Zm0-11.27H382v-5.64h.93Z" style="fill:#dbdbdb"></path><rect x="247.84" y="162.57" width="4.31" height="32.32" style="fill:#dbdbdb"></rect><rect x="247.84" y="162.57" width="4.31" height="32.32" transform="translate(428.72 -71.27) rotate(90)" style="fill:#dbdbdb"></rect><rect x="117.53" y="254.6" width="44.93" height="15.31" style="fill:#FFC727"></rect><path d="M124.68,263.31a.39.39,0,0,1,.55-.06,2.44,2.44,0,0,0,1.42.58,1.65,1.65,0,0,0,.93-.28.67.67,0,0,0,.32-.53.45.45,0,0,0-.07-.24.71.71,0,0,0-.23-.23,3,3,0,0,0-1-.34h0a3.86,3.86,0,0,1-1-.3,1.61,1.61,0,0,1-.69-.57,1.17,1.17,0,0,1-.17-.61,1.37,1.37,0,0,1,.59-1.09,2.24,2.24,0,0,1,1.29-.39,3,3,0,0,1,1.62.59.4.4,0,0,1,.11.53.38.38,0,0,1-.53.11,2.21,2.21,0,0,0-1.2-.48,1.41,1.41,0,0,0-.83.26.59.59,0,0,0-.28.47.33.33,0,0,0,0,.2.62.62,0,0,0,.2.2,2.55,2.55,0,0,0,.93.32h0a4.29,4.29,0,0,1,1,.32,1.71,1.71,0,0,1,.74.61,1.23,1.23,0,0,1,.18.64,1.45,1.45,0,0,1-.64,1.15,2.3,2.3,0,0,1-1.37.42,3.27,3.27,0,0,1-1.91-.74A.4.4,0,0,1,124.68,263.31Z" style="fill:#fff"></path><path d="M129.47,262.74a1.83,1.83,0,0,1,1.81-1.86,1.77,1.77,0,0,1,1.79,1.73v.1a.37.37,0,0,1-.39.3h-2.37a1,1,0,0,0,.26.49,1.1,1.1,0,0,0,.71.33,1.15,1.15,0,0,0,.77-.18.43.43,0,0,1,.56,0,.35.35,0,0,1,0,.49,1.89,1.89,0,0,1-1.33.49A1.84,1.84,0,0,1,129.47,262.74Zm.81-.36h2.1a1.2,1.2,0,0,0-1.1-.79A1,1,0,0,0,130.28,262.38Z" style="fill:#fff"></path><path d="M137.36,262.43v1.77a.39.39,0,0,1-.39.4.4.4,0,0,1-.39-.4v-1.77a.76.76,0,0,0-.78-.75.74.74,0,0,0-.74.75v1.77a.22.22,0,0,1,0,.08.42.42,0,0,1-.4.32.39.39,0,0,1-.39-.4v-2.92a.39.39,0,0,1,.39-.4.41.41,0,0,1,.37.23,1.46,1.46,0,0,1,.78-.23A1.56,1.56,0,0,1,137.36,262.43Z" style="fill:#fff"></path><path d="M142,264.2a.4.4,0,0,1-.8.08,1.84,1.84,0,1,1-1-3.4,1.79,1.79,0,0,1,1,.31V259.8a.41.41,0,1,1,.81,0v2.94h0Zm-1.81-2.51a1,1,0,0,0-.7.31,1.07,1.07,0,0,0-.3.75,1.05,1.05,0,0,0,.3.73,1,1,0,0,0,.7.31.93.93,0,0,0,.7-.31,1,1,0,0,0,.3-.73,1,1,0,0,0-.3-.75A.93.93,0,0,0,140.23,261.69Z" style="fill:#fff"></path><polygon points="154.85 261.72 158.15 261.72 156.5 263.16 154.85 261.72" style="fill:#fff"></polygon><path d="M150.68,255.62a64.78,64.78,0,0,1,0,13.64,64.78,64.78,0,0,1,0-13.64Z" style="opacity:0.1"></path><path d="M182.05,263.35h-3.26l-.66,1.75a.75.75,0,0,1-.7.47.71.71,0,0,1-.26,0,.77.77,0,0,1-.44-1l3-7.91a.76.76,0,0,1,.71-.47.75.75,0,0,1,.71.47l3,7.91a.76.76,0,0,1-.44,1,.68.68,0,0,1-.26,0,.71.71,0,0,1-.68-.47Zm-.55-1.47L180.41,259l-1.09,2.89Z" style="fill:#c7c7c7"></path><rect x="176.07" y="266.89" width="8.66" height="1.44" style="fill:#c7c7c7"></rect><path d="M195.9,268.25a3,3,0,0,1-3-3v-6.61a2.25,2.25,0,0,1,4.49,0v6.19a1.41,1.41,0,0,1-2.81,0v-5.15h.93v5.15a.47.47,0,0,0,.47.47.48.48,0,0,0,.48-.47v-6.19a1.32,1.32,0,0,0-2.63,0v6.61a2.07,2.07,0,0,0,4.14,0v-5.58h.93v5.58A3,3,0,0,1,195.9,268.25Z" style="fill:#c7c7c7"></path><path d="M211.47,265.49H210a3.29,3.29,0,1,1,0-6.56h1.43v1.4H210a1.89,1.89,0,1,0,0,3.77h1.43Z" style="fill:#c7c7c7"></path><path d="M215.71,265.49h-1.43V264.1h1.43a1.89,1.89,0,1,0,0-3.77h-1.43v-1.4h1.43a3.29,3.29,0,1,1,0,6.56Z" style="fill:#c7c7c7"></path><rect x="210.62" y="261.52" width="4.51" height="1.4" style="fill:#c7c7c7"></rect><path d="M231.21,267.7a5.38,5.38,0,1,1,5.37-5.37A5.38,5.38,0,0,1,231.21,267.7Zm0-9.82a4.45,4.45,0,1,0,4.44,4.45A4.45,4.45,0,0,0,231.21,257.88Z" style="fill:#c7c7c7"></path><circle cx="228.95" cy="261.46" r="0.76" style="fill:#c7c7c7"></circle><circle cx="233.46" cy="261.46" r="0.76" style="fill:#c7c7c7"></circle><path d="M229.06,263.39h4.3a2.55,2.55,0,0,1-2.15,1.1A2.31,2.31,0,0,1,229.06,263.39Z" style="fill:#c7c7c7"></path><path d="M252.58,265.76h-8.75l4.37-7.31Zm-7.11-.93h5.47l-2.74-4.57Z" style="fill:#c7c7c7"></path><rect x="258.77" y="257.91" width="8.82" height="8.82" style="fill:#c7c7c7"></rect><polygon points="266.79 265.3 261.57 265.3 264.18 262.49 266.79 265.3" style="fill:#fff"></polygon><polygon points="263.79 265.3 259.58 265.3 261.68 263.03 263.79 265.3" style="fill:#fff"></polygon><rect x="275.09" y="259.68" width="7.06" height="7.06" style="fill:#c7c7c7"></rect><path d="M280.7,260.35h-.93V258.8a1.16,1.16,0,0,0-2.31,0v1.55h-.93V258.8a2.09,2.09,0,0,1,4.17,0Z" style="fill:#c7c7c7"></path><path d="M286.49,263.77a3.7,3.7,0,1,1-3.7-3.69A3.7,3.7,0,0,1,286.49,263.77Z" style="fill:#fff"></path><path d="M282.79,267.93a4.16,4.16,0,1,1,4.16-4.16A4.16,4.16,0,0,1,282.79,267.93Zm0-7.39a3.23,3.23,0,1,0,3.23,3.23A3.23,3.23,0,0,0,282.79,260.54Z" style="fill:#c7c7c7"></path><polygon points="283.7 265.34 282.33 263.97 282.33 261.8 283.26 261.8 283.26 263.58 284.36 264.69 283.7 265.34" style="fill:#c7c7c7"></polygon><path d="M368.87,259a.76.76,0,1,1-.76-.76A.76.76,0,0,1,368.87,259Z" style="fill:#c7c7c7"></path><path d="M368.87,262.33a.76.76,0,1,1-.76-.76A.76.76,0,0,1,368.87,262.33Z" style="fill:#c7c7c7"></path><path d="M368.87,265.62a.76.76,0,1,1-.76-.75A.76.76,0,0,1,368.87,265.62Z" style="fill:#c7c7c7"></path><rect x="376.33" y="260.12" width="5.51" height="6.26" style="fill:#c7c7c7"></rect><rect x="375.71" y="258.91" width="6.75" height="0.77" style="fill:#c7c7c7"></rect><rect x="376.74" y="258.12" width="4.7" height="0.78" style="fill:#c7c7c7"></rect></g><g id="freepik--Character--inject-170"><polygon points="155.38 403.26 90.71 455.41 94.35 455.41 169.04 403.26 155.38 403.26" style="fill:#c7c7c7"></polygon><polygon points="161.45 403.26 129.5 455.41 133.14 455.41 172.31 403.26 161.45 403.26" style="fill:#c7c7c7"></polygon><polygon points="177.12 403.26 209.07 455.41 205.43 455.41 166.26 403.26 177.12 403.26" style="fill:#c7c7c7"></polygon><polygon points="182.7 403.26 247.37 455.41 243.72 455.41 169.04 403.26 182.7 403.26" style="fill:#c7c7c7"></polygon><polygon points="290.63 384.13 290.63 368.88 201.83 365.24 154.92 240 47.44 240 85.47 384.13 176.32 409.64 182.02 409.64 290.63 384.13" style="fill:#455a64"></polygon><polygon points="47.44 240 59.74 240 99.36 371.38 179.74 394.15 290.63 368.88 290.63 384.13 182.02 409.64 176.32 409.64 85.47 384.13 47.44 240" style="fill:#37474f"></polygon><path d="M355.94,454.88c-2.86.07-77.18-22.9-79.46-25.57-.24-.29.92-11.3,2.84-20,.08-.42-26.4-35.12-26.4-35.12l47.88-18.62L323.71,403l6,12.34s24.79,24.92,27,28.11S358.81,454.82,355.94,454.88Z" style="fill:#ebebeb"></path><path d="M358,455.3c-3,.08-80.57-23.6-83-26.38-.91-1,.48-5.84,4.25-19.64l50.86,6.12s26.25,24.65,28.55,28S361,455.22,358,455.3Z" style="fill:#FFC727"></path><path d="M357.87,451.86c-12.91-4.29-65.38-20.37-78.46-23.63-.11,0-.13,0,0,.08,12.7,4.53,65.3,20.19,78.42,23.76C358.08,452.15,358.14,452,357.87,451.86Z" style="fill:#263238"></path><path d="M354.59,439.06a11,11,0,0,0-8.75.8,10.61,10.61,0,0,0-5,6.06c0,.08.12.12.16.05a12.62,12.62,0,0,1,13.57-6.74A.09.09,0,0,0,354.59,439.06Z" style="fill:#263238"></path><path d="M335.43,420.53c-5.18-1.66-11.78-1.66-16.31,1.61-.18.12,0,.37.19.34a75.4,75.4,0,0,1,16-1.28A.34.34,0,0,0,335.43,420.53Z" style="fill:#263238"></path><path d="M339,423.33c-5.18-1.66-11.78-1.67-16.31,1.6-.18.13,0,.38.19.34a74.74,74.74,0,0,1,16-1.27A.34.34,0,0,0,339,423.33Z" style="fill:#263238"></path><path d="M342.51,426.12c-5.18-1.66-11.78-1.67-16.31,1.6-.18.13,0,.38.19.35a75.4,75.4,0,0,1,16-1.28A.34.34,0,0,0,342.51,426.12Z" style="fill:#263238"></path><path d="M346.05,428.91c-5.18-1.66-11.77-1.66-16.31,1.61-.17.12,0,.37.19.34a75.4,75.4,0,0,1,16-1.28A.34.34,0,0,0,346.05,428.91Z" style="fill:#263238"></path><path d="M345.3,408.36c-2-3-5.94-1.87-8.26-.09a28.59,28.59,0,0,0-8.79,11.86.14.14,0,0,0,.12.2c0,.41.34.86.8.71,4.49-1.43,9.47-2.41,13.38-5.18C344.84,414.25,347.16,411.19,345.3,408.36Zm-9.76,9.12c-2.19.75-4.41,1.4-6.57,2.24a84.57,84.57,0,0,1,5.29-6.82,30.42,30.42,0,0,1,3-2.93c1.66-1.38,8.09-4.17,6.88,1.66C343.44,414.84,338.15,416.57,335.54,417.48Z" style="fill:#263238"></path><path d="M314.73,418.12c4.32,2.08,9.39,2.21,14,2.88.48.07.75-.43.68-.83a.14.14,0,0,0,.08-.21,28.45,28.45,0,0,0-10.64-10.25c-2.58-1.36-6.68-1.81-8.12,1.46C309.41,414.27,312.21,416.9,314.73,418.12Zm-2.24-3.93c-2.16-5.54,4.65-3.85,6.51-2.77a30,30,0,0,1,3.42,2.4,83.49,83.49,0,0,1,6.34,5.85c-2.27-.47-4.56-.74-6.84-1.13C319.19,418.08,313.68,417.25,312.49,414.19Z" style="fill:#263238"></path><path d="M326.13,405.21,273.35,413s-28.8-52.3-40.43-65.31l0,0a19.31,19.31,0,0,0-2.13-2.08h0a11.17,11.17,0,0,0-3.81-.95h0c-15.61-1.89-68.13,3.21-104.43.87l17-22.66,7.51-10c40.89-4.66,91.07-21.38,113.72-10C285.25,315.1,326.13,405.21,326.13,405.21Z" style="fill:#263238"></path><path d="M319.51,396.25c-9,1.15-6.41.7-15.37,1.95-4.38.61-26.42,3.64-30.42,4.89a.09.09,0,0,0,0,.17c4.18,0,26.16-3.46,30.53-4.16,8.93-1.41,6.35-1.1,15.27-2.6A.13.13,0,1,0,319.51,396.25Z" style="fill:#37474f"></path><path d="M273.62,402.35c-6-10-33.17-59.28-38.58-61.22-4.93-1.77-103.5.28-105,.29-.11,0-.11.17,0,.17,11.67-.15,101.77-.47,104.34.54,5.35,2.12,37.87,59.3,38.67,60.49C273.29,402.94,273.83,402.69,273.62,402.35Z" style="fill:#37474f"></path><path d="M94.91,324.88s-3.11,29.73,12,44.51c18.05,17.7,137.17,13.23,155.63,7.26s19-35.75-1.15-42.66c-19.19-6.56-104.31-10.34-106.32-11.14s-7.92-10.22-7.92-10.22Z" style="fill:#263238"></path><path d="M120.12,324.05c0-.15-.24-.1-.24,0A16.44,16.44,0,0,1,116,334.63c-2.83,3.27-7,5.1-10.78,7-.36.18-.08.75.29.64a33.94,33.94,0,0,0,6.67-2.88,16.17,16.17,0,0,0,5-4.17A14.33,14.33,0,0,0,120.12,324.05Z" style="fill:#37474f"></path><path d="M154.23,321c-.85-1.08-1.77-2.1-2.65-3.15-2.07-2.47-4.16-5-6.34-7.35-.21-.22-.61.1-.42.34,1.46,1.92,3,3.78,4.55,5.65.78,1,1.57,1.92,2.36,2.87a18,18,0,0,1,2.2,2.8c.57,1.06-.18,2-1.28,2.09a3.87,3.87,0,0,1-2.66-1,35.44,35.44,0,0,1-4.5-4.82c-.88-1-1.75-2-2.64-2.94s-1.95-2-2.9-3.05c-.06-.06-.18,0-.12.1.82,1.13,1.58,2.31,2.41,3.45s1.66,2.25,2.51,3.36,1.64,2.08,2.5,3.09a10.38,10.38,0,0,0,2.54,2.27c1.58.93,4.32,1.13,5.16-.91A2.88,2.88,0,0,0,154.23,321Z" style="fill:#37474f"></path><path d="M260,376.76c-6.36.12-12.71.49-19.06.63s-12.62.17-18.92.11q-19-.18-38-1.48c-12.77-.88-26.54-2.15-39.23-3.91-6.07-.84-12.22-1.54-18.22-2.83a28.79,28.79,0,0,1-14.37-7.34c-8.21-8-11.41-19.69-12.72-30.88-.17-1.5-.32-3-.44-4.51,0-.1-.16-.1-.16,0,.75,11.48,2.53,23.44,9.75,32.67a28.64,28.64,0,0,0,11.76,9.13c5.68,2.28,12,2.81,18,3.62C151.12,373.7,165,375,177.76,376s25.81,1.62,38.73,1.81,25.86,0,38.77-.63c1.58-.07,3.15-.17,4.72-.3C260.07,376.9,260.07,376.76,260,376.76Z" style="fill:#37474f"></path><path d="M277,349a20.46,20.46,0,0,0-8.51-12.17c-4.58-3.13-10.05-4.55-15.47-5.34-6.12-.89-12.33-1.34-18.49-1.94q-19-1.84-38-3.4c-12.66-1-39.91-3.16-41.45-3.22-.13,0-.16.22,0,.24,12.21,1.35,23.33,2.52,35.57,3.63s24.59,2.29,36.88,3.5q9.19.92,18.37,1.85c5.67.59,11.51,1.17,16.83,3.36,4.56,1.88,8.67,4.9,11,9.34A21.89,21.89,0,0,1,275.52,359a24.9,24.9,0,0,1-5.91,12,21.1,21.1,0,0,1-11.06,6.68c-1.12.24-2.47.42-3.5.62-.08,0-.16.18-.08.19,9.15.23,17.61-6.45,20.91-14.81A24.5,24.5,0,0,0,277,349Z" style="fill:#37474f"></path><path d="M135.73,257.91c22.65,8.19,45.17,9.38,51.59,7.85,8.12-1.93,36.29-30,37.55-31.58,3.09-3.87-22.29-24.89-25.76-20.9-5.3,6.08-22.56,27.86-25,28.35s-17.55,2-39,3.12C120.22,245.51,121.68,252.82,135.73,257.91Z" style="fill:#ad6359"></path><path d="M219.17,239.65c3.4-1.5,18.36-9.75,22-13s13.49-13.27,11.3-16.32-5.3-.34-5.3-.34,3.48-4.9,1-7.76-7.18,1.51-7.18,1.51,3.2-5.3.53-8-6.68,2.51-6.68,2.51,3.16-4.7,0-6c-3.77-1.54-8.61,7.78-12.91,11-1,.74-20.85,13.59-20.85,13.59Z" style="fill:#ad6359"></path><path d="M235.2,197.86c-3.58,6.85-6.33,9.23-12.9,13-.13.08-.05.28.09.22,6.78-3.16,10.66-5.64,13.15-13.11C235.67,197.65,235.37,197.54,235.2,197.86Z" style="fill:#263238"></path><path d="M241.27,203.22c-4.34,6.79-7.3,9.39-13.89,13.9-.1.06,0,.23.1.17,6.84-3.88,10.66-6.45,14.1-13.8C241.74,203.16,241.47,202.91,241.27,203.22Z" style="fill:#263238"></path><path d="M246.84,210.24c-4.68,6.27-7.8,9.27-14.76,12.82a.15.15,0,0,0,.11.27c7.46-2.94,11.38-6.65,14.83-12.93C247.25,210,247.13,209.85,246.84,210.24Z" style="fill:#263238"></path><polygon points="265.09 242.49 215.41 242.49 215.41 178.71 252.3 178.71 265.1 190.87 265.09 242.49" style="fill:#fff"></polygon><path d="M265.09,242.49c-.14,0-49.69.15-49.83.14s0-63.86-.07-63.92v-.23h.22c.12.05,36.94,0,37,.11s12.79,12.17,12.82,12.21-.19,51.64-.15,51.69Zm0,0s-.18-52-.09-51.52l-12.82-12.13c.65.08-36.92.08-36.77.09l.23-.22-.09,63.78c-.9-.33,49.74.08,49.54,0Z" style="fill:#263238"></path><polygon points="252.3 178.71 265.1 190.87 252.3 190.87 252.3 178.71" style="fill:#ebebeb"></polygon><rect x="220.26" y="189.41" width="27.63" height="1.64" transform="translate(468.12 380.48) rotate(-180)" style="fill:#ebebeb"></rect><rect x="220.26" y="193.55" width="27.63" height="1.64" transform="translate(468.12 388.75) rotate(-180)" style="fill:#ebebeb"></rect><rect x="220.26" y="197.68" width="27.63" height="1.64" transform="translate(468.12 397.02) rotate(-180)" style="fill:#ebebeb"></rect><rect x="220.26" y="201.81" width="40.48" height="1.64" transform="translate(480.97 405.29) rotate(-180)" style="fill:#ebebeb"></rect><rect x="220.26" y="205.95" width="40.48" height="1.64" transform="translate(480.97 413.55) rotate(-180)" style="fill:#ebebeb"></rect><rect x="220.26" y="210.08" width="40.48" height="1.64" transform="translate(480.97 421.82) rotate(-180)" style="fill:#ebebeb"></rect><rect x="220.26" y="214.22" width="40.48" height="1.64" transform="translate(480.97 430.09) rotate(-180)" style="fill:#ebebeb"></rect><rect x="220.26" y="218.35" width="40.48" height="1.64" transform="translate(480.97 438.36) rotate(-180)" style="fill:#ebebeb"></rect><rect x="220.25" y="222.48" width="40.48" height="1.64" transform="translate(480.97 446.63) rotate(-180)" style="fill:#ebebeb"></rect><rect x="220.25" y="226.62" width="40.48" height="1.64" transform="translate(480.97 454.89) rotate(-180)" style="fill:#ebebeb"></rect><rect x="220.25" y="230.75" width="40.48" height="1.64" transform="translate(480.96 463.16) rotate(-180)" style="fill:#ebebeb"></rect><rect x="220.25" y="234.89" width="40.48" height="1.64" transform="translate(480.96 471.43) rotate(-180)" style="fill:#ebebeb"></rect><polygon points="268.09 240.37 218.4 240.36 218.41 176.58 255.3 176.58 268.1 188.74 268.09 240.37" style="fill:#fff"></polygon><path d="M268.09,240.37l-49.83.14c-.08,0,0-63.87-.07-63.93v-.22h.22c.12,0,36.94,0,37,.1s12.78,12.17,12.82,12.22-.19,51.63-.15,51.69Zm0,0s-.18-52-.1-51.53l-12.81-12.13c.65.09-36.92.08-36.77.09l.22-.22-.08,63.78c-.9-.33,49.74.09,49.54,0Z" style="fill:#263238"></path><polygon points="255.3 176.58 268.1 188.74 255.3 188.74 255.3 176.58" style="fill:#ebebeb"></polygon><rect x="223.26" y="187.28" width="27.63" height="1.64" transform="translate(474.12 376.23) rotate(-180)" style="fill:#ebebeb"></rect><rect x="223.26" y="191.42" width="27.63" height="1.64" transform="translate(474.12 384.49) rotate(-180)" style="fill:#ebebeb"></rect><rect x="223.25" y="195.55" width="27.63" height="1.64" transform="translate(474.12 392.76) rotate(-180)" style="fill:#ebebeb"></rect><rect x="223.25" y="199.69" width="40.48" height="1.64" transform="translate(486.97 401.03) rotate(-180)" style="fill:#ebebeb"></rect><rect x="223.25" y="203.82" width="40.48" height="1.64" transform="translate(486.97 409.3) rotate(-180)" style="fill:#ebebeb"></rect><rect x="223.25" y="207.95" width="40.48" height="1.64" transform="matrix(-1, 0, 0, -1, 486.97, 417.57)" style="fill:#ebebeb"></rect><rect x="223.25" y="212.09" width="40.48" height="1.64" transform="translate(486.97 425.83) rotate(-180)" style="fill:#ebebeb"></rect><rect x="223.25" y="216.22" width="40.48" height="1.64" transform="translate(486.96 434.1) rotate(-180)" style="fill:#ebebeb"></rect><rect x="223.25" y="220.36" width="40.48" height="1.64" transform="translate(486.96 442.37) rotate(-180)" style="fill:#ebebeb"></rect><rect x="223.25" y="224.49" width="40.48" height="1.64" transform="translate(486.96 450.64) rotate(-180)" style="fill:#ebebeb"></rect><rect x="223.25" y="228.62" width="40.48" height="1.64" transform="translate(486.96 458.91) rotate(-180)" style="fill:#ebebeb"></rect><rect x="223.25" y="232.76" width="40.48" height="1.64" transform="translate(486.96 467.17) rotate(-180)" style="fill:#ebebeb"></rect><path d="M228,186.88a2.78,2.78,0,0,1-2.78-2.78V176a1.68,1.68,0,0,1,3.36,0v6.73h-.91V176a.77.77,0,0,0-1.54,0v8.08a1.87,1.87,0,1,0,3.73,0v-8.63a2.86,2.86,0,1,0-5.72,0v1.11h-.92v-1.11a3.77,3.77,0,1,1,7.54,0v8.63A2.79,2.79,0,0,1,228,186.88Z" style="fill:#263238"></path><path d="M196.16,216.66s5.48-8,8.67-10.95S224,196,225.6,199.38c2.13,4.34-6.31,10-10.81,12.28,0,0,4.92,10-.25,15.43S196.16,216.66,196.16,216.66Z" style="fill:#ad6359"></path><path d="M225.79,200.77c-.91,5.35-7,7.92-11.21,10.43a.44.44,0,0,0-.08.73c1.78,4.34,3,11,.34,15.15-.07.12.09.25.18.14,3.49-4.08,2.8-10.71.54-15.34,4.35-2.5,10.34-5.34,10.29-11.11A0,0,0,0,0,225.79,200.77Z" style="fill:#263238"></path><path d="M193.71,216.73l24.48,30.74s-24.45,20-32.68,21.4-36.75-4.62-51.7-9.64-13.4-15-1.41-15.75,41.3-2.95,42.27-3.51S193.71,216.73,193.71,216.73Z" style="fill:#FFC727"></path><path d="M203.13,240.51c-2.72-3.43-5.4-6.9-8.25-10.23-1.61-1.9-3.21-3.81-4.85-5.69-.06-.07-.19,0-.13.1,2.58,3.56,5.19,7.13,7.94,10.57s5.44,6.87,8.22,10.25c1.58,1.93,3.21,3.8,4.91,5.63,0,0,.1,0,.07,0C208.57,247.44,205.86,244,203.13,240.51Z" style="fill:#263238"></path><path d="M163,266.64a250.14,250.14,0,0,1-29.17-7.4c-14.83-5-13.4-15-1.41-15.76l3-.19Z" style="opacity:0.1"></path><path d="M91.48,330c.19.19,72-15.54,72.67-16.37.93-1.18-11.9-55.18-25.44-71.3-3.39-4-14.17-3.75-19,.32C95.8,262.84,90.8,329.33,91.48,330Z" style="fill:#FFC727"></path><path d="M114.13,246.54c-14.32,11-52.06,55.56-44.17,66.12s62,7,77.74,2.51c4.69-1.36-7.35-31.22-12.36-32.7-4.17-1.23-27.58,5.13-28,3.77-.48-1.53,4.7-11.41,13.07-29.45C130.05,236,120.46,241.68,114.13,246.54Z" style="fill:#ad6359"></path><path d="M157.35,279c10.44.27,13.07,1.94,22-2.51,5.86-2.92,10.24-.43,6.26,5.09-6.51,9-20.05,11.51-25,11Z" style="fill:#ad6359"></path><path d="M128.63,284.33s12.52-4.47,23.66-5.28c7.71-.57,24.62.08,37.77,19,3.11,4.5,4.37,13.12-3.39,7.62-5.52-3.91-7.83-8-11.45-9.73,0,0,.29,11.15-4.34,14.1a102.44,102.44,0,0,1-12.64,6.84,21.85,21.85,0,0,1-1.49-2.26s-4.59,2.35-12.15.35Z" style="fill:#ad6359"></path><path d="M159.74,279.68c3.24,2.44,10,7.71,14.06,14,4.49,6.93,11.27,21.5,6.12,24.76-3.78,2.39-6.86-2.94-6.86-2.94s1.53,6.61-2.35,8c-3.54,1.28-5.68-3-5.68-3s.24,4.18-3.41,4.76c-4.39.7-4.17-8.15-9.23-11.28C151.25,313.27,159.74,279.68,159.74,279.68Z" style="fill:#ad6359"></path><path d="M165.68,297.16c2.67,2.79,7.11,10.68,7.46,18.15,0,.17-.11.26-.15.11a81.18,81.18,0,0,0-7.38-18.22S165.65,297.13,165.68,297.16Z" style="fill:#263238"></path><path d="M158.81,301.9c2.06,2.64,6.27,11,6.37,18.56,0,.17-.13.26-.17.1a87,87,0,0,0-6.27-18.63S158.78,301.86,158.81,301.9Z" style="fill:#263238"></path><path d="M175.23,295.91c3.16,1.53,5.06,3.52,7.54,5.93a47.71,47.71,0,0,0,3.83,3.42c1.24,1,3.05,2.39,4.68,1.48a2.74,2.74,0,0,0,1.06-2.61,13.39,13.39,0,0,0-1.2-4.08c0-.05.06-.1.09-.05a20.1,20.1,0,0,1,1.44,3.7,4.52,4.52,0,0,1-.13,2.65c-.79,1.75-3,1.63-4.44.87a14.37,14.37,0,0,1-2.41-1.7c-.73-.59-1.43-1.22-2.11-1.87-1.41-1.33-2.73-2.74-4.12-4.08a43.2,43.2,0,0,0-4.3-3.56S175.17,295.88,175.23,295.91Z" style="fill:#263238"></path><path d="M180.26,308.76A105,105,0,0,0,175.15,296c0-.06,0-.11.08-.06,2.19,2.89,5.27,10.1,5.89,12.35s1.29,5.05.91,7.35c-.58,3.47-3,3.75-3.87,3.78a4.59,4.59,0,0,1-2.87-1,9.19,9.19,0,0,1-2.27-3s0-.1.08,0c1,1.57,2.76,3.25,4.68,3.31a3.17,3.17,0,0,0,2.34-.8,4.16,4.16,0,0,0,1-2.71A19.09,19.09,0,0,0,180.26,308.76Z" style="fill:#263238"></path><path d="M128.63,282.83l10.87,37.81s-67.61,3.86-71.36-8.42,28.92-52.5,42.47-63.55c15.7-12.8,16.54-7.42,11.43,5.38-5.35,13.41-14.57,32.55-14.57,32.55Z" style="fill:#FFC727"></path><path d="M86.11,292.66a73.78,73.78,0,0,1,21.22-6.4c2.07-.33,4.16-.55,6.25-.79a.05.05,0,0,1,0,.1,96.31,96.31,0,0,0-10.87,2.29q-5.34,1.39-10.62,3c-2,.6-4,1.29-5.94,2C86.07,292.83,86,292.7,86.11,292.66Z" style="fill:#263238"></path><path d="M128.47,282.7c-.34,0-19.14,3-19.77,3.14.12-.26,4.89-9.21,5.6-10.52l.2-.39c.43-.57.86-1.13,1.26-1.71l1.55-2.25s0-.05,0,0c-.55.72-1.1,1.44-1.64,2.17-.25.34-.5.68-.73,1,.47-.93.94-1.87,1.4-2.8.74-1.5,1.43-3,2.12-4.53,0-.05-.05-.08-.08,0-1.4,2.61-2.88,5.17-4.3,7.78s-6.76,12.17-6.73,12.17,20.78-3.68,21.19-3.78A.13.13,0,0,0,128.47,282.7Z" style="fill:#263238"></path><path d="M125.89,305.77c-1.18-4.22-2.34-8.45-3.68-12.62-.76-2.37-1.52-4.75-2.3-7.11,0-.09-.19-.05-.17,0,1,4.28,2.06,8.57,3.28,12.8s2.4,8.43,3.66,12.63q1.09,3.57,2.38,7.08s.1,0,.09,0C128.27,314.25,127.09,310,125.89,305.77Z" style="fill:#263238"></path><path d="M140.25,321.33c-.48-1.19-1-2.88-1.57-4-.14-.31-.36-.29-.26,0,.33,1.06.56,2.23.89,3.32-.95,0-1.89,0-2.84.08l-3.28.14q-3.21.12-6.42.18-6.51.13-13,0a251.8,251.8,0,0,1-26-1.83c-2.42-.31-4.83-.67-7.22-1.1a71,71,0,0,1-7-1.51c-.06,0-.09.08,0,.11a41,41,0,0,0,6,1.82q3.24.71,6.51,1.21c4.34.67,8.72,1.1,13.1,1.42,8.68.63,17.4.88,26.11.79,2.44,0,4.88-.08,7.31-.17,1.23,0,2.47-.08,3.7-.15S140.33,321.53,140.25,321.33Z" style="fill:#263238"></path><rect x="144.93" y="326.31" width="86.51" height="3.49" style="fill:#455a64"></rect><rect x="144.93" y="326.31" width="47.87" height="3.49" style="fill:#a6a6a6"></rect><polygon points="191.35 329.79 267.17 329.79 277.88 278.3 202.06 278.3 191.35 329.79" style="fill:#a6a6a6"></polygon><polygon points="194.79 329.79 270.61 329.79 281.32 278.3 205.5 278.3 194.79 329.79" style="fill:#c7c7c7"></polygon><path d="M233,305.2a4.46,4.46,0,0,0,4.52,5.05,5.76,5.76,0,0,0,5.59-5.05,4.47,4.47,0,0,0-4.52-5.06A5.75,5.75,0,0,0,233,305.2Z" style="fill:#ebebeb"></path><path d="M133.64,258s-14.22-10.76-22.38-9.44l-6.17,7.06s-2.18,1-3.07-.32c-2.2-3.36-3.65-12,3.08-18.53,6.16-6,17.37-7,27-5.77,9.25,1.22,17.76,6.17,15.75,12.35S133.64,258,133.64,258Z" style="fill:#FFC727"></path><path d="M134.19,255.16s9.33-8.63,9.83-13.11-8.71-7.52-14.53-8.43c-9-1.42-14.86-.11-19.14,5.15S134.19,255.16,134.19,255.16Z" style="opacity:0.1"></path><path d="M134.86,252.91c-3.2.77-11.07-3.95-14.67-8.52-.24-.32-.32-4-.64-8.57-.2-2.75-.48-5.8-1-8.56l18.05,1.3a44.73,44.73,0,0,0,.11,10.9,6.34,6.34,0,0,0,.31,1.12s0,.11.05.18C137.84,242.86,139.87,251.71,134.86,252.91Z" style="fill:#ad6359"></path><path d="M137.07,240.58s0,.1.06.18a11.86,11.86,0,0,1-1.77.4c-9.9,1.42-14.33-10.19-15.45-13.81l16.75,1.21a45.42,45.42,0,0,0,.09,10.91A7.53,7.53,0,0,0,137.07,240.58Z" style="fill:#263238"></path><path d="M111,209.94c0,6.52,8.47,22.77,13.89,25.3,7.86,3.67,18.09,1.1,20.54-7.74,2.37-8.57-9-29.55-14.82-31.58C122.08,192.93,111,200.31,111,209.94Z" style="fill:#ad6359"></path><path d="M127.81,214.91a15.6,15.6,0,0,0,1.15-1.15,2.68,2.68,0,0,0,1-1.41.85.85,0,0,0-.57-.86,2.08,2.08,0,0,0-2,.72,3.11,3.11,0,0,0-1,2A.9.9,0,0,0,127.81,214.91Z" style="fill:#263238"></path><path d="M139.09,209.61a14.15,14.15,0,0,1-1.6.32,2.67,2.67,0,0,1-1.7,0,.85.85,0,0,1-.4-.95,2.08,2.08,0,0,1,1.7-1.25,3,3,0,0,1,2.2.24A.9.9,0,0,1,139.09,209.61Z" style="fill:#263238"></path><path d="M134.81,227.46a1.89,1.89,0,0,0,1.25.2,3.24,3.24,0,0,0,1.06-.86,0,0,0,0,1,.08,0,1.7,1.7,0,0,1-1.12,1.28,1.32,1.32,0,0,1-1.35-.56C134.68,227.5,134.75,227.44,134.81,227.46Z" style="fill:#263238"></path><path d="M134.38,223.57a4.25,4.25,0,0,0,3.34.47,5.68,5.68,0,0,0,1.39-.6,1.4,1.4,0,0,0,.24-.15l.23-.16a.29.29,0,0,0,.1-.35h0l-.07-.11h0l-.05-.09c-.39-.87-1.1-2.13-1.1-2.13.39,0,2.33-.05,2.09-.48a62.81,62.81,0,0,0-7-10.75c-.08-.11-.26,0-.19.13,1.79,3.53,4.18,6.72,6,10.24a7.05,7.05,0,0,0-2,.32c-.11.09,1.41,2.41,1.56,2.81a.18.18,0,0,0,0,.05,5.88,5.88,0,0,1-4.51.67C134.32,223.39,134.27,223.51,134.38,223.57Z" style="fill:#263238"></path><path d="M138.39,223.25a5,5,0,0,1-1.12,2.26,2.34,2.34,0,0,1-1.2.67c-1,.19-1.41-.61-1.58-1.39a5.8,5.8,0,0,1-.12-1.26A6.46,6.46,0,0,0,138.39,223.25Z" style="fill:#263238"></path><path d="M137.27,225.51a2.34,2.34,0,0,1-1.2.67c-1,.19-1.41-.61-1.58-1.39A2.32,2.32,0,0,1,137.27,225.51Z" style="fill:#ff9abb"></path><path d="M131.64,216.41s-.07.09,0,.13c.53,1.11,1,2.46.1,3.28,0,0,0,.08,0,.06C132.9,219.16,132.32,217.37,131.64,216.41Z" style="fill:#263238"></path><path d="M130.12,215.68c-1.86.66-.4,4.34,1.32,3.73S131.68,215.13,130.12,215.68Z" style="fill:#263238"></path><path d="M138.09,213.33s.11,0,.13.07c.4,1.16,1.06,2.41,2.25,2.39,0,0,.05.06,0,.07C139.15,216.17,138.29,214.5,138.09,213.33Z" style="fill:#263238"></path><path d="M138.65,211.75c1.78-.86,3.35,2.77,1.7,3.56S137.15,212.46,138.65,211.75Z" style="fill:#263238"></path><path d="M136.52,201.38c-1.28-1.19-2.67-2.34-3.69-2.24s-.2,3.05-2.15,4.08c-2.63,1.4-5.72-1.07-9.44.81-4.6,2.33-5.47,6.87-2.16,14.67,3,7-.59,9.63-.59,9.63s-10.13-13.9-8.09-20.86,10.91-13.57,19.67-11.71C133.27,196.44,136.52,201.38,136.52,201.38Z" style="fill:#263238"></path><path d="M119,222.84s-5.69-4.26-7.75-2.05,3.51,9.27,6.82,9.39a3.15,3.15,0,0,0,3.48-2.93Z" style="fill:#ad6359"></path><path d="M112.93,222.78a0,0,0,0,0,0,.08c2.34.15,4.06,1.71,5.48,3.45a1.74,1.74,0,0,0-2.63.36c0,.06,0,.13.1.09a1.94,1.94,0,0,1,2.24,0,9,9,0,0,1,1.51,1.32c.16.15.46-.06.32-.25l0,0C119.11,225.12,115.84,222.11,112.93,222.78Z" style="fill:#263238"></path><path d="M125,195.66a26.34,26.34,0,0,0-7.66.56c-2.8.68-11,4.52-12.33,7s1.09,10.57,1.48,11.75,3.56,8,6.74,8.71-1.1-11.26,1.41-16.73S125,195.66,125,195.66Z" style="fill:#FFC727"></path><path d="M125,195.66s-7.85,5.8-10.36,11.27,1.77,17.45-1.41,16.73c-1.4-.33-2.37-1.23-3.53-2.91-.79-3.68-1.43-9.61,0-14.45,1.39-4.53,5.39-8.07,10.17-10.53A31.44,31.44,0,0,1,125,195.66Z" style="opacity:0.1"></path><path d="M116.56,230.45c-1-3.25-1-13,.56-19.11s10.41-12.77,11.83-13.21c3.45-1.09,4.8.24,5.22-.26s-4.41-3.06-5.58-3.27a11.72,11.72,0,0,0-5.11.6c-1.45.59-10.16,4.93-12,10s-2.38,17.68-.47,20.13c.45.58,1.5.68,2.14,1.51.84,1.1,1.64,2.43,2.34,3.15S116.65,230.74,116.56,230.45Z" style="fill:#FFC727"></path><path d="M117.07,208.86a18.17,18.17,0,0,1-2.8-.78,12.34,12.34,0,0,1-2.63-1.29c-.06,0-.13,0-.08.09a9.58,9.58,0,0,0,2.56,1.6,8.22,8.22,0,0,0,2.94.57A.1.1,0,0,0,117.07,208.86Z" style="fill:#263238"></path><path d="M115.33,227.3a7.45,7.45,0,0,0-.6-.52,4.72,4.72,0,0,1-.59-.67,7.87,7.87,0,0,0-.94-1.41,6.41,6.41,0,0,0-1.15-.77,2.27,2.27,0,0,1-1.11-1.05.06.06,0,0,0-.11,0c.37,1,1.27,1.4,2,2.05a11.33,11.33,0,0,1,1.06,1.48,2.69,2.69,0,0,0,1.34,1C115.31,227.47,115.39,227.37,115.33,227.3Z" style="fill:#263238"></path><path d="M115.12,223.46c-.43-.25-.88-.45-1.3-.74a12.39,12.39,0,0,1-1.13-.93c-.35-.33-.67-.68-1-1s-.87-.75-1.26-1.16c0-.05-.12,0-.07.09.4.43.73.92,1.12,1.37a11,11,0,0,0,1.1,1.06,8.28,8.28,0,0,0,1.18.86,3.57,3.57,0,0,0,1.36.51A0,0,0,1,0,115.12,223.46Z" style="fill:#263238"></path><path d="M115.1,219.92a9.85,9.85,0,0,1-2.47-1.29c-.73-.54-1.43-1.13-2.12-1.72-.05,0-.13,0-.08.08a11.08,11.08,0,0,0,2,2,5.67,5.67,0,0,0,1.19.69,6,6,0,0,0,1.44.36C115.13,220,115.17,219.94,115.1,219.92Z" style="fill:#263238"></path><path d="M115.23,216.48a3.5,3.5,0,0,1-1.16-.53c-.41-.26-.82-.52-1.21-.79s-.77-.51-1.15-.78a3.27,3.27,0,0,1-1-.95c0-.05-.12,0-.1,0a3.51,3.51,0,0,0,.84,1.11,8.47,8.47,0,0,0,1.19,1,13.06,13.06,0,0,0,1.3.77,2.19,2.19,0,0,0,1.29.31C115.3,216.62,115.32,216.49,115.23,216.48Z" style="fill:#263238"></path><path d="M114.71,212.37c-.41-.18-.81-.36-1.2-.57s-.76-.43-1.13-.66-.79-.48-1.17-.74a.05.05,0,1,0-.07.08,10,10,0,0,0,1,.93,8.7,8.7,0,0,0,1.16.73,10.55,10.55,0,0,0,1.22.59,3.67,3.67,0,0,0,1.3.33c.06,0,.1-.1,0-.14A6,6,0,0,0,114.71,212.37Z" style="fill:#263238"></path><path d="M118.82,206.13c-.46-.27-.91-.53-1.39-.76a14.11,14.11,0,0,0-1.52-.6,14.3,14.3,0,0,0-3.09-.72c-.06,0-.1.08,0,.1,2,.72,4,1.35,6,2.08A.06.06,0,0,0,118.82,206.13Z" style="fill:#263238"></path><path d="M119.71,202.69a7.16,7.16,0,0,0-1.46-.61,15.28,15.28,0,0,0-3.29-.48c-.07,0-.1.09,0,.11,1,.23,2.07.45,3.08.74a15.32,15.32,0,0,1,1.49.5c.48.2.91.5,1.38.72,0,0,.08,0,.06-.06A4,4,0,0,0,119.71,202.69Z" style="fill:#263238"></path><path d="M121.88,200.45a7.23,7.23,0,0,0-1.38-.65,8.85,8.85,0,0,0-2.83-.48c-.07,0-.07.1,0,.12a17.17,17.17,0,0,1,2.79.75c.45.17.89.36,1.34.54s.87.46,1.33.6c0,0,0,0,0-.06A7.66,7.66,0,0,0,121.88,200.45Z" style="fill:#263238"></path><path d="M123.19,198.14c-.44-.14-.88-.26-1.33-.38a4,4,0,0,0-1.33-.2c-.07,0-.07.09,0,.11.85.27,1.69.56,2.53.84a12.43,12.43,0,0,1,2.14,1.19s.07,0,0-.06A4.38,4.38,0,0,0,123.19,198.14Z" style="fill:#263238"></path><path d="M125.37,196.73a7.06,7.06,0,0,0-2.61-.52c-.07,0-.07.11,0,.11a8.87,8.87,0,0,1,2.47.72,11.86,11.86,0,0,1,2.23,1.31s.09,0,.06-.06A5.73,5.73,0,0,0,125.37,196.73Z" style="fill:#263238"></path><path d="M129,197a3.32,3.32,0,0,0-.46-.38,5.89,5.89,0,0,0-1-.6,12.51,12.51,0,0,0-2.33-.7c-.07,0-.09.1,0,.11a9.87,9.87,0,0,1,2.23.79,6.67,6.67,0,0,1,1,.58l.45.34a2.75,2.75,0,0,0,.43.35s.1,0,.08-.07A1.57,1.57,0,0,0,129,197Z" style="fill:#263238"></path><path d="M131,196.41c-.28-.18-.56-.34-.85-.49a7.82,7.82,0,0,0-.9-.38c-.32-.11-.64-.21-.95-.34-.07,0-.11.08,0,.11a5.38,5.38,0,0,1,.92.41l.84.44c.29.14.57.29.85.44s.56.34.85.46c.05,0,.09,0,.05-.07A4.39,4.39,0,0,0,131,196.41Z" style="fill:#263238"></path><path d="M134.19,255.16s-12.32-15.88-25.2-16l2.27,9.38s7.56-.94,22.38,9.44Z" style="fill:#FFC727"></path><path d="M107.87,249.18a16.26,16.26,0,0,1,6.91,0,30,30,0,0,1,6.6,2.11,52.07,52.07,0,0,1,6.16,3.19l2.93,1.89,2.84,2,.32.23.3-.21a57.44,57.44,0,0,0,6.3-5,31.72,31.72,0,0,0,2.84-2.84c.88-1,4.51-5.35,5-8.25-1.14,2.89-6.26,8.88-8.3,10.55-1,.84-2.09,1.62-3.16,2.39s-2.16,1.53-3.26,2.24l.61,0-2.85-2.1c-1-.66-2-1.3-3-1.93s-2.06-1.18-3.12-1.71-2.13-1-3.25-1.45a27.77,27.77,0,0,0-6.87-1.82c-.59-.09-1.19-.11-1.78-.15s-1.19,0-1.78,0A10.48,10.48,0,0,0,107.87,249.18Z" style="fill:#263238"></path><path d="M105.09,255.63a34.77,34.77,0,0,0,3.31-3.34,32.49,32.49,0,0,0,2.86-3.72,35.87,35.87,0,0,0-3.3,3.34A33.75,33.75,0,0,0,105.09,255.63Z" style="fill:#263238"></path><path d="M128.65,252.75a71,71,0,0,0,.41,12.14c.32,2.81,2.76,12.71,5.82,11.93s-2.88-6.59-4.49-11.77-.71-9.25-.95-12.45Z" style="fill:#FFC727"></path><g style="opacity:0.1"><path d="M128.65,252.75a71,71,0,0,0,.41,12.14c.32,2.81,2.76,12.71,5.82,11.93s-2.88-6.59-4.49-11.77-.71-9.25-.95-12.45Z"></path></g><path d="M139.77,251.81a101.78,101.78,0,0,1,3.9,11.35c.68,2.47,2,11.63-.86,12s.2-6.52-.2-11.42-2.67-9-3.55-11.8Z" style="fill:#FFC727"></path><g style="opacity:0.1"><path d="M139.77,251.81a101.78,101.78,0,0,1,3.9,11.35c.68,2.47,2,11.63-.86,12s.2-6.52-.2-11.42-2.67-9-3.55-11.8Z"></path></g></g></svg>
